<mxfile host="app.diagrams.net" modified="2020-11-22T11:27:15.912Z" agent="5.0 (Macintosh; Intel Mac OS X 10_16_0) AppleWebKit/537.36 (KHTML, like Gecko) Chrome/85.0.4183.102 Safari/537.36" etag="o-Xci5DgCEG5KFI4wV_D" version="13.9.9" type="github" pages="2">
  <diagram id="Z-qMKyQLUfdNwotEitYn" name="Page-1">
    <mxGraphModel dx="1298" dy="809" grid="1" gridSize="10" guides="1" tooltips="1" connect="1" arrows="1" fold="1" page="1" pageScale="1" pageWidth="827" pageHeight="1169" math="0" shadow="0">
      <root>
        <mxCell id="0" />
        <mxCell id="1" parent="0" />
        <mxCell id="dGygHMlxwgr8LozLWv9H-12" style="edgeStyle=orthogonalEdgeStyle;rounded=0;orthogonalLoop=1;jettySize=auto;html=1;" parent="1" source="dGygHMlxwgr8LozLWv9H-1" target="dGygHMlxwgr8LozLWv9H-11" edge="1">
          <mxGeometry relative="1" as="geometry" />
        </mxCell>
        <mxCell id="dGygHMlxwgr8LozLWv9H-13" value="2" style="edgeLabel;html=1;align=center;verticalAlign=middle;resizable=0;points=[];" parent="dGygHMlxwgr8LozLWv9H-12" vertex="1" connectable="0">
          <mxGeometry x="0.0222" relative="1" as="geometry">
            <mxPoint as="offset" />
          </mxGeometry>
        </mxCell>
        <mxCell id="dGygHMlxwgr8LozLWv9H-1" value="snowmass-api" style="rounded=0;whiteSpace=wrap;html=1;" parent="1" vertex="1">
          <mxGeometry x="120" y="120" width="120" height="60" as="geometry" />
        </mxCell>
        <mxCell id="dGygHMlxwgr8LozLWv9H-3" value="yosemite" style="rounded=0;whiteSpace=wrap;html=1;" parent="1" vertex="1">
          <mxGeometry x="400" y="60" width="120" height="60" as="geometry" />
        </mxCell>
        <mxCell id="dGygHMlxwgr8LozLWv9H-4" value="steamboat" style="rounded=0;whiteSpace=wrap;html=1;" parent="1" vertex="1">
          <mxGeometry x="400" y="180" width="120" height="60" as="geometry" />
        </mxCell>
        <mxCell id="dGygHMlxwgr8LozLWv9H-7" value="" style="endArrow=classic;html=1;exitX=1;exitY=0.5;exitDx=0;exitDy=0;entryX=0;entryY=0.5;entryDx=0;entryDy=0;" parent="1" source="dGygHMlxwgr8LozLWv9H-1" target="dGygHMlxwgr8LozLWv9H-3" edge="1">
          <mxGeometry width="50" height="50" relative="1" as="geometry">
            <mxPoint x="260" y="150" as="sourcePoint" />
            <mxPoint x="310" y="100" as="targetPoint" />
          </mxGeometry>
        </mxCell>
        <mxCell id="dGygHMlxwgr8LozLWv9H-9" value="1" style="edgeLabel;html=1;align=center;verticalAlign=middle;resizable=0;points=[];" parent="dGygHMlxwgr8LozLWv9H-7" vertex="1" connectable="0">
          <mxGeometry x="0.163" relative="1" as="geometry">
            <mxPoint as="offset" />
          </mxGeometry>
        </mxCell>
        <mxCell id="dGygHMlxwgr8LozLWv9H-8" value="" style="endArrow=classic;html=1;exitX=1;exitY=0.5;exitDx=0;exitDy=0;entryX=0;entryY=0.5;entryDx=0;entryDy=0;" parent="1" source="dGygHMlxwgr8LozLWv9H-1" target="dGygHMlxwgr8LozLWv9H-4" edge="1">
          <mxGeometry width="50" height="50" relative="1" as="geometry">
            <mxPoint x="260" y="190" as="sourcePoint" />
            <mxPoint x="310" y="140" as="targetPoint" />
          </mxGeometry>
        </mxCell>
        <mxCell id="dGygHMlxwgr8LozLWv9H-10" value="1" style="edgeLabel;html=1;align=center;verticalAlign=middle;resizable=0;points=[];" parent="dGygHMlxwgr8LozLWv9H-8" vertex="1" connectable="0">
          <mxGeometry x="0.0932" y="-1" relative="1" as="geometry">
            <mxPoint as="offset" />
          </mxGeometry>
        </mxCell>
        <mxCell id="dGygHMlxwgr8LozLWv9H-11" value="bat2" style="ellipse;shape=cloud;whiteSpace=wrap;html=1;" parent="1" vertex="1">
          <mxGeometry x="120" y="270" width="120" height="80" as="geometry" />
        </mxCell>
        <mxCell id="dGygHMlxwgr8LozLWv9H-14" value="获取用户维度相关的信息&lt;br&gt;如实验版本、画像等" style="text;html=1;strokeColor=none;fillColor=none;align=center;verticalAlign=middle;whiteSpace=wrap;rounded=0;" parent="1" vertex="1">
          <mxGeometry x="320" y="140" width="150" height="20" as="geometry" />
        </mxCell>
        <mxCell id="dGygHMlxwgr8LozLWv9H-15" value="放入缓存" style="text;html=1;strokeColor=none;fillColor=none;align=center;verticalAlign=middle;whiteSpace=wrap;rounded=0;" parent="1" vertex="1">
          <mxGeometry x="200" y="220" width="70" height="20" as="geometry" />
        </mxCell>
        <mxCell id="dGygHMlxwgr8LozLWv9H-18" style="edgeStyle=orthogonalEdgeStyle;rounded=0;orthogonalLoop=1;jettySize=auto;html=1;entryX=0;entryY=0.5;entryDx=0;entryDy=0;" parent="1" source="dGygHMlxwgr8LozLWv9H-16" target="dGygHMlxwgr8LozLWv9H-17" edge="1">
          <mxGeometry relative="1" as="geometry" />
        </mxCell>
        <mxCell id="dGygHMlxwgr8LozLWv9H-22" value="1.1" style="edgeLabel;html=1;align=center;verticalAlign=middle;resizable=0;points=[];" parent="dGygHMlxwgr8LozLWv9H-18" vertex="1" connectable="0">
          <mxGeometry x="-0.3333" y="-1" relative="1" as="geometry">
            <mxPoint as="offset" />
          </mxGeometry>
        </mxCell>
        <mxCell id="dGygHMlxwgr8LozLWv9H-16" value="支付业务" style="rounded=0;whiteSpace=wrap;html=1;" parent="1" vertex="1">
          <mxGeometry x="120" y="440" width="90" height="40" as="geometry" />
        </mxCell>
        <mxCell id="dGygHMlxwgr8LozLWv9H-21" style="edgeStyle=orthogonalEdgeStyle;rounded=0;orthogonalLoop=1;jettySize=auto;html=1;entryX=0;entryY=0.5;entryDx=0;entryDy=0;" parent="1" source="dGygHMlxwgr8LozLWv9H-17" target="dGygHMlxwgr8LozLWv9H-19" edge="1">
          <mxGeometry relative="1" as="geometry" />
        </mxCell>
        <mxCell id="dGygHMlxwgr8LozLWv9H-23" value="1.2" style="edgeLabel;html=1;align=center;verticalAlign=middle;resizable=0;points=[];" parent="dGygHMlxwgr8LozLWv9H-21" vertex="1" connectable="0">
          <mxGeometry x="0.0222" y="-2" relative="1" as="geometry">
            <mxPoint as="offset" />
          </mxGeometry>
        </mxCell>
        <mxCell id="dGygHMlxwgr8LozLWv9H-29" value="1.4" style="edgeStyle=orthogonalEdgeStyle;rounded=0;orthogonalLoop=1;jettySize=auto;html=1;entryX=0.5;entryY=0;entryDx=0;entryDy=0;" parent="1" source="dGygHMlxwgr8LozLWv9H-17" target="dGygHMlxwgr8LozLWv9H-28" edge="1">
          <mxGeometry relative="1" as="geometry" />
        </mxCell>
        <mxCell id="dGygHMlxwgr8LozLWv9H-17" value="snowmass-api" style="rounded=0;whiteSpace=wrap;html=1;" parent="1" vertex="1">
          <mxGeometry x="300" y="440" width="90" height="40" as="geometry" />
        </mxCell>
        <mxCell id="dGygHMlxwgr8LozLWv9H-19" value="steamboat-api" style="rounded=0;whiteSpace=wrap;html=1;" parent="1" vertex="1">
          <mxGeometry x="480" y="440" width="90" height="40" as="geometry" />
        </mxCell>
        <mxCell id="dGygHMlxwgr8LozLWv9H-24" value="bat2" style="ellipse;shape=cloud;whiteSpace=wrap;html=1;" parent="1" vertex="1">
          <mxGeometry x="166" y="540" width="114" height="60" as="geometry" />
        </mxCell>
        <mxCell id="dGygHMlxwgr8LozLWv9H-26" value="" style="endArrow=classic;html=1;exitX=0.5;exitY=1;exitDx=0;exitDy=0;entryX=0.474;entryY=0.1;entryDx=0;entryDy=0;entryPerimeter=0;" parent="1" source="dGygHMlxwgr8LozLWv9H-17" target="dGygHMlxwgr8LozLWv9H-24" edge="1">
          <mxGeometry width="50" height="50" relative="1" as="geometry">
            <mxPoint x="380" y="530" as="sourcePoint" />
            <mxPoint x="430" y="480" as="targetPoint" />
          </mxGeometry>
        </mxCell>
        <mxCell id="dGygHMlxwgr8LozLWv9H-27" value="1.3" style="edgeLabel;html=1;align=center;verticalAlign=middle;resizable=0;points=[];" parent="dGygHMlxwgr8LozLWv9H-26" vertex="1" connectable="0">
          <mxGeometry x="0.0102" y="-3" relative="1" as="geometry">
            <mxPoint as="offset" />
          </mxGeometry>
        </mxCell>
        <mxCell id="dGygHMlxwgr8LozLWv9H-35" style="edgeStyle=orthogonalEdgeStyle;rounded=0;orthogonalLoop=1;jettySize=auto;html=1;" parent="1" source="dGygHMlxwgr8LozLWv9H-28" edge="1">
          <mxGeometry relative="1" as="geometry">
            <mxPoint x="480" y="580" as="targetPoint" />
          </mxGeometry>
        </mxCell>
        <mxCell id="dGygHMlxwgr8LozLWv9H-28" value="monitor" style="rounded=0;whiteSpace=wrap;html=1;" parent="1" vertex="1">
          <mxGeometry x="300" y="560" width="90" height="40" as="geometry" />
        </mxCell>
        <mxCell id="dGygHMlxwgr8LozLWv9H-32" style="edgeStyle=orthogonalEdgeStyle;rounded=0;orthogonalLoop=1;jettySize=auto;html=1;entryX=0;entryY=0.5;entryDx=0;entryDy=0;" parent="1" source="dGygHMlxwgr8LozLWv9H-30" target="dGygHMlxwgr8LozLWv9H-31" edge="1">
          <mxGeometry relative="1" as="geometry" />
        </mxCell>
        <mxCell id="dGygHMlxwgr8LozLWv9H-30" value="dts" style="rounded=0;whiteSpace=wrap;html=1;" parent="1" vertex="1">
          <mxGeometry x="120" y="680" width="90" height="40" as="geometry" />
        </mxCell>
        <mxCell id="dGygHMlxwgr8LozLWv9H-34" style="edgeStyle=orthogonalEdgeStyle;rounded=0;orthogonalLoop=1;jettySize=auto;html=1;entryX=0.5;entryY=1;entryDx=0;entryDy=0;" parent="1" source="dGygHMlxwgr8LozLWv9H-31" target="dGygHMlxwgr8LozLWv9H-28" edge="1">
          <mxGeometry relative="1" as="geometry" />
        </mxCell>
        <mxCell id="dGygHMlxwgr8LozLWv9H-43" value="2,3" style="edgeLabel;html=1;align=center;verticalAlign=middle;resizable=0;points=[];" parent="dGygHMlxwgr8LozLWv9H-34" vertex="1" connectable="0">
          <mxGeometry x="0.15" relative="1" as="geometry">
            <mxPoint as="offset" />
          </mxGeometry>
        </mxCell>
        <mxCell id="dGygHMlxwgr8LozLWv9H-31" value="steamboat-task" style="rounded=0;whiteSpace=wrap;html=1;" parent="1" vertex="1">
          <mxGeometry x="300" y="680" width="90" height="40" as="geometry" />
        </mxCell>
        <mxCell id="dGygHMlxwgr8LozLWv9H-33" value="" style="endArrow=classic;html=1;entryX=0.31;entryY=0.8;entryDx=0;entryDy=0;entryPerimeter=0;" parent="1" target="dGygHMlxwgr8LozLWv9H-24" edge="1">
          <mxGeometry width="50" height="50" relative="1" as="geometry">
            <mxPoint x="345" y="678" as="sourcePoint" />
            <mxPoint x="480" y="600" as="targetPoint" />
          </mxGeometry>
        </mxCell>
        <mxCell id="dGygHMlxwgr8LozLWv9H-42" value="2.2" style="edgeLabel;html=1;align=center;verticalAlign=middle;resizable=0;points=[];" parent="dGygHMlxwgr8LozLWv9H-33" vertex="1" connectable="0">
          <mxGeometry x="-0.1421" y="1" relative="1" as="geometry">
            <mxPoint as="offset" />
          </mxGeometry>
        </mxCell>
        <mxCell id="dGygHMlxwgr8LozLWv9H-36" value="可视化展示" style="rounded=1;whiteSpace=wrap;html=1;" parent="1" vertex="1">
          <mxGeometry x="480" y="550" width="120" height="60" as="geometry" />
        </mxCell>
        <mxCell id="dGygHMlxwgr8LozLWv9H-37" value="通过率监控" style="text;html=1;strokeColor=none;fillColor=none;align=center;verticalAlign=middle;whiteSpace=wrap;rounded=0;" parent="1" vertex="1">
          <mxGeometry x="10" y="460" width="70" height="20" as="geometry" />
        </mxCell>
        <mxCell id="dGygHMlxwgr8LozLWv9H-39" value="gmv监控" style="text;html=1;strokeColor=none;fillColor=none;align=center;verticalAlign=middle;whiteSpace=wrap;rounded=0;" parent="1" vertex="1">
          <mxGeometry x="10" y="690" width="70" height="20" as="geometry" />
        </mxCell>
        <mxCell id="dGygHMlxwgr8LozLWv9H-40" value="2.1" style="text;html=1;align=center;verticalAlign=middle;resizable=0;points=[];autosize=1;" parent="1" vertex="1">
          <mxGeometry x="235" y="690" width="30" height="20" as="geometry" />
        </mxCell>
      </root>
    </mxGraphModel>
  </diagram>
  <diagram id="cPCHYTLgLQ9s1Z2yON7g" name="Page-2">
    <mxGraphModel dx="1298" dy="809" grid="1" gridSize="10" guides="1" tooltips="1" connect="1" arrows="1" fold="1" page="1" pageScale="1" pageWidth="827" pageHeight="1169" math="0" shadow="0">
      <root>
        <mxCell id="_IwR5EXdx1RYYRNNZ9t2-0" />
        <mxCell id="_IwR5EXdx1RYYRNNZ9t2-1" parent="_IwR5EXdx1RYYRNNZ9t2-0" />
        <mxCell id="_IwR5EXdx1RYYRNNZ9t2-2" value="Thread" style="rounded=0;whiteSpace=wrap;html=1;" vertex="1" parent="_IwR5EXdx1RYYRNNZ9t2-1">
          <mxGeometry x="40" y="160" width="120" height="40" as="geometry" />
        </mxCell>
        <mxCell id="_IwR5EXdx1RYYRNNZ9t2-3" value="thread1" style="rounded=0;whiteSpace=wrap;html=1;" vertex="1" parent="_IwR5EXdx1RYYRNNZ9t2-1">
          <mxGeometry x="200" y="120" width="120" height="40" as="geometry" />
        </mxCell>
        <mxCell id="_IwR5EXdx1RYYRNNZ9t2-4" value="thread2" style="rounded=0;whiteSpace=wrap;html=1;" vertex="1" parent="_IwR5EXdx1RYYRNNZ9t2-1">
          <mxGeometry x="200" y="200" width="120" height="40" as="geometry" />
        </mxCell>
        <mxCell id="_IwR5EXdx1RYYRNNZ9t2-6" value="" style="endArrow=classic;html=1;exitX=1;exitY=0.5;exitDx=0;exitDy=0;" edge="1" parent="_IwR5EXdx1RYYRNNZ9t2-1" source="_IwR5EXdx1RYYRNNZ9t2-2">
          <mxGeometry width="50" height="50" relative="1" as="geometry">
            <mxPoint x="150" y="190" as="sourcePoint" />
            <mxPoint x="200" y="140" as="targetPoint" />
          </mxGeometry>
        </mxCell>
        <mxCell id="_IwR5EXdx1RYYRNNZ9t2-7" value="" style="endArrow=classic;html=1;exitX=1;exitY=0.5;exitDx=0;exitDy=0;" edge="1" parent="_IwR5EXdx1RYYRNNZ9t2-1" source="_IwR5EXdx1RYYRNNZ9t2-2">
          <mxGeometry width="50" height="50" relative="1" as="geometry">
            <mxPoint x="160" y="190" as="sourcePoint" />
            <mxPoint x="200" y="220" as="targetPoint" />
          </mxGeometry>
        </mxCell>
        <mxCell id="_IwR5EXdx1RYYRNNZ9t2-8" value="threadLocals" style="rounded=0;whiteSpace=wrap;html=1;" vertex="1" parent="_IwR5EXdx1RYYRNNZ9t2-1">
          <mxGeometry x="380" y="120" width="120" height="40" as="geometry" />
        </mxCell>
        <mxCell id="_IwR5EXdx1RYYRNNZ9t2-9" value="" style="endArrow=classic;html=1;entryX=0;entryY=0.5;entryDx=0;entryDy=0;exitX=1;exitY=0.5;exitDx=0;exitDy=0;" edge="1" parent="_IwR5EXdx1RYYRNNZ9t2-1" source="_IwR5EXdx1RYYRNNZ9t2-3" target="_IwR5EXdx1RYYRNNZ9t2-8">
          <mxGeometry width="50" height="50" relative="1" as="geometry">
            <mxPoint x="360" y="320" as="sourcePoint" />
            <mxPoint x="410" y="270" as="targetPoint" />
          </mxGeometry>
        </mxCell>
        <mxCell id="_IwR5EXdx1RYYRNNZ9t2-10" value="key:threadLocal1&lt;br&gt;value:XXX" style="rounded=0;whiteSpace=wrap;html=1;" vertex="1" parent="_IwR5EXdx1RYYRNNZ9t2-1">
          <mxGeometry x="560" y="50" width="120" height="60" as="geometry" />
        </mxCell>
        <mxCell id="_IwR5EXdx1RYYRNNZ9t2-11" value="key:threadLocal2&lt;br&gt;value:XXX" style="rounded=0;whiteSpace=wrap;html=1;" vertex="1" parent="_IwR5EXdx1RYYRNNZ9t2-1">
          <mxGeometry x="560" y="160" width="120" height="60" as="geometry" />
        </mxCell>
        <mxCell id="_IwR5EXdx1RYYRNNZ9t2-12" value="" style="endArrow=classic;html=1;entryX=0;entryY=0.5;entryDx=0;entryDy=0;exitX=1;exitY=0.5;exitDx=0;exitDy=0;" edge="1" parent="_IwR5EXdx1RYYRNNZ9t2-1" source="_IwR5EXdx1RYYRNNZ9t2-8" target="_IwR5EXdx1RYYRNNZ9t2-10">
          <mxGeometry width="50" height="50" relative="1" as="geometry">
            <mxPoint x="470" y="250" as="sourcePoint" />
            <mxPoint x="520" y="200" as="targetPoint" />
          </mxGeometry>
        </mxCell>
        <mxCell id="_IwR5EXdx1RYYRNNZ9t2-13" value="" style="endArrow=classic;html=1;entryX=0;entryY=0.5;entryDx=0;entryDy=0;exitX=1;exitY=0.5;exitDx=0;exitDy=0;" edge="1" parent="_IwR5EXdx1RYYRNNZ9t2-1" source="_IwR5EXdx1RYYRNNZ9t2-8" target="_IwR5EXdx1RYYRNNZ9t2-11">
          <mxGeometry width="50" height="50" relative="1" as="geometry">
            <mxPoint x="440" y="280" as="sourcePoint" />
            <mxPoint x="500" y="210" as="targetPoint" />
          </mxGeometry>
        </mxCell>
      </root>
    </mxGraphModel>
  </diagram>
</mxfile>
